<?xml version="1.0" standalone="no"?>
<!DOCTYPE svg PUBLIC "-//W3C//DTD SVG 20010904//EN"
 "http://www.w3.org/TR/2001/REC-SVG-20010904/DTD/svg10.dtd">
<svg version="1.0" xmlns="http://www.w3.org/2000/svg"
 width="800.000000pt" height="800.000000pt" viewBox="0 0 800.000000 800.000000"
 preserveAspectRatio="xMidYMid meet">
<metadata>
Created by potrace 1.14, written by Peter Selinger 2001-2017
</metadata>
<g transform="translate(0.000000,800.000000) scale(0.100000,-0.100000)"
fill="#000000" stroke="none">
<path d="M3669 7565 c-2 -2 -38 -6 -79 -10 -41 -3 -86 -8 -100 -10 -14 -2 -45
-7 -70 -10 -243 -33 -543 -113 -794 -212 -95 -37 -270 -116 -296 -133 -8 -5
-30 -16 -48 -25 -132 -59 -492 -300 -628 -420 -211 -185 -363 -341 -479 -489
-16 -21 -42 -52 -56 -69 -14 -18 -41 -54 -59 -82 -19 -27 -36 -52 -40 -55 -10
-8 -125 -191 -158 -250 -16 -30 -46 -83 -66 -118 -19 -34 -35 -65 -36 -67 -1
-13 -36 -80 -42 -83 -5 -2 -8 -7 -8 -12 0 -5 -5 -21 -12 -37 -6 -15 -12 -30
-13 -33 0 -3 -11 -27 -23 -54 -12 -27 -22 -51 -22 -53 0 -3 -6 -19 -14 -36
-25 -58 -36 -90 -38 -114 -1 -7 -5 -13 -10 -13 -4 0 -7 -3 -7 -7 1 -5 0 -10
-1 -13 -1 -3 -3 -12 -5 -20 -3 -8 -18 -62 -35 -120 -17 -58 -33 -113 -35 -123
-2 -10 -6 -26 -9 -35 -3 -9 -7 -28 -10 -42 -2 -14 -9 -43 -14 -65 -6 -22 -13
-56 -16 -75 -3 -19 -7 -44 -10 -55 -2 -11 -6 -41 -10 -66 -4 -25 -9 -58 -11
-72 -3 -14 -7 -50 -9 -79 -3 -29 -8 -82 -12 -118 -10 -84 -11 -402 -1 -505 13
-131 23 -220 33 -280 3 -16 7 -43 10 -60 71 -448 276 -962 544 -1360 29 -44
57 -81 62 -83 4 -2 8 -8 8 -13 0 -11 60 -92 73 -97 4 -2 7 -7 7 -12 0 -8 36
-54 77 -97 12 -13 21 -23 19 -23 -16 0 310 -331 393 -400 30 -25 59 -49 65
-55 6 -5 27 -22 46 -36 19 -15 45 -35 57 -45 11 -11 31 -26 43 -34 12 -8 31
-23 42 -33 12 -9 24 -17 28 -17 4 0 16 -8 28 -18 53 -45 61 -50 65 -46 2 2 10
-2 17 -11 7 -8 18 -15 25 -15 7 0 16 -7 19 -16 3 -8 10 -12 16 -9 5 3 10 2 10
-3 0 -5 8 -12 18 -15 9 -4 35 -17 57 -31 22 -14 60 -35 85 -47 25 -13 48 -27
52 -33 4 -6 8 -7 8 -2 0 5 7 2 16 -5 9 -7 23 -14 32 -16 9 -1 18 -7 20 -13 2
-5 8 -8 13 -4 5 3 9 0 9 -5 0 -6 3 -10 8 -9 4 0 30 -10 57 -23 28 -13 52 -23
55 -24 3 0 10 -3 15 -7 16 -10 197 -80 203 -78 1 0 16 -7 32 -15 16 -8 32 -15
35 -15 3 1 45 -11 93 -27 105 -33 88 -28 140 -38 23 -4 42 -11 42 -15 0 -4 12
-7 28 -8 15 0 59 -8 97 -17 83 -20 98 -23 145 -30 20 -3 45 -7 55 -9 11 -2 45
-7 75 -10 30 -4 69 -8 87 -11 189 -24 528 -24 738 0 108 12 132 15 151 19 12
2 45 7 75 11 30 4 57 9 60 11 3 2 21 6 40 9 42 7 129 26 149 33 8 2 22 6 30 8
8 1 33 8 55 14 22 6 48 12 58 15 9 2 21 6 25 9 5 3 19 7 33 10 13 3 48 14 77
25 29 11 54 20 55 20 3 0 24 7 92 33 33 12 62 23 65 23 3 1 32 14 65 30 33 15
66 29 72 31 24 4 308 156 311 165 2 5 9 9 17 9 7 0 18 7 25 15 7 8 20 15 29
15 9 0 28 11 43 25 15 14 32 25 37 25 5 0 16 6 23 12 7 7 42 33 78 58 62 42
183 133 206 155 6 5 28 24 49 40 57 45 345 332 391 390 21 28 44 55 50 60 6 6
43 53 83 105 39 52 75 100 79 105 27 35 122 186 122 194 0 5 3 11 8 13 19 8
204 366 241 468 8 19 20 51 29 70 15 35 101 282 107 310 2 8 17 69 34 135 28
110 63 293 75 390 3 22 9 67 13 100 10 75 10 594 1 695 -4 41 -14 118 -22 170
-8 52 -18 113 -21 135 -3 22 -8 48 -11 57 -3 9 -7 27 -9 40 -12 61 -19 89 -42
173 -27 99 -70 239 -83 270 -4 11 -27 70 -50 130 -54 138 -167 368 -250 505
-55 92 -171 266 -207 310 -6 8 -42 53 -80 100 -360 451 -870 828 -1413 1048
-222 89 -470 164 -660 198 -14 3 -36 7 -50 9 -65 12 -150 25 -200 30 -30 4
-68 9 -85 12 -34 6 -590 14 -596 8z"/>
</g>
</svg>
