<svg xmlns="http://www.w3.org/2000/svg" viewBox="0 0 535.11 358.79"><defs><style>.cls-1{fill:#ffa40d;}</style></defs><g id="Layer_2" data-name="Layer 2"><g id="Layer_1-2" data-name="Layer 1"><path class="cls-1" d="M433.17,74.24s-19.1-25.35-64.71-25.35c-98.51,0-142.39,88-239.08,88-75.41,0-79.51-37.15-79.51-37.15s22.5,13.38,57.16,13.38C205.53,113.11,248.93,0,385.55,0,511.77,0,508.91,82.84,508.91,111.5c0,21.7,26.2,88.43,26.2,107.27-12.16,10.94-25.38,9.82-25.38,9.82s23,130.2-51.21,130.2c-46.22,0-63.24-80.27-154.46-80.27C341.4,219.18,390,152.44,433.17,152.44c38.92,0,55.27,10.24,55.27,10.24s-6.14-31.94-65.92-31.94C312.8,130.74,294,307.61,149.85,307.61,27,307.61,8.51,237.17,8.51,237.17s49,36.05,106.13,36.05c88.78,0,110.36-55.51,110.36-55.51s-23.47,10.47-96.44,10.47C25.79,228.18,0,150.81,0,150.81s31.62,28.58,105.81,28.58c118.55,0,175.87-110,264.3-110C408.73,69.37,433.17,74.24,433.17,74.24Z"/></g></g></svg>