<svg xmlns="http://www.w3.org/2000/svg" viewBox="0 0 197.46 57.16"><defs><style>.cls-1{fill:#ffa40d;}.cls-2{font-size:37.27px;font-family:BebasNeue-Regular, Bebas Neue;}.cls-2,.cls-4{fill:#fff;}.cls-3{letter-spacing:0em;}</style></defs><g id="Layer_2" data-name="Layer 2"><g id="Layer_1-2" data-name="Layer 1"><path class="cls-1" d="M58.78,14.74S56.19,11.3,50,11.3c-13.37,0-19.32,11.94-32.44,11.94-10.24,0-10.79-5-10.79-5A16.37,16.37,0,0,0,14.52,20C27.89,20,33.78,4.67,52.32,4.67c17.12,0,16.74,11.24,16.74,15.13,0,2.94,3.55,12,3.55,14.55a4.94,4.94,0,0,1-3.44,1.34s3.12,17.66-7,17.66c-6.27,0-8.58-10.89-21-10.89,5.07-8.05,11.66-17.11,17.52-17.11,5.28,0,7.5,1.39,7.5,1.39s-.84-4.33-9-4.33c-14.89,0-17.44,24-37,24-16.66,0-19.17-9.56-19.17-9.56s6.64,4.89,14.4,4.89c12,0,15-7.53,15-7.53s-3.18,1.42-13.09,1.42C3.5,35.63,0,25.13,0,25.13S4.29,29,14.36,29c16.08,0,23.86-14.93,35.86-14.93A48.4,48.4,0,0,1,58.78,14.74Z"/><text class="cls-2" transform="translate(85.23 31.68)">G<tspan class="cls-3" x="14.57" y="0">l</tspan><tspan x="27.24" y="0">orious</tspan></text><path class="cls-4" d="M88.3,53.35a.3.3,0,0,1-.25-.1A.33.33,0,0,1,88,53V41.63a.37.37,0,0,1,.1-.24.34.34,0,0,1,.25-.11h6.5a.34.34,0,0,1,.24.11.33.33,0,0,1,.1.24.32.32,0,0,1-.1.25.36.36,0,0,1-.24.09H88.59l0-.07v5l-.07-.14H94a.37.37,0,0,1,.24.1.36.36,0,0,1,0,.5.36.36,0,0,1-.24.09H88.54l.1-.14V53a.36.36,0,0,1-.09.24A.33.33,0,0,1,88.3,53.35Z"/><path class="cls-4" d="M110.07,44.75a.3.3,0,0,1,.25.1.33.33,0,0,1,.1.24V53a.34.34,0,0,1-.11.24.33.33,0,0,1-.24.1.33.33,0,0,1-.25-.1.36.36,0,0,1-.09-.24V50.56l.27-.23a2.63,2.63,0,0,1-.27,1.13,3.92,3.92,0,0,1-.76,1,3.76,3.76,0,0,1-1.14.75,3.52,3.52,0,0,1-1.41.29,3.64,3.64,0,0,1-2.06-.61,4.15,4.15,0,0,1-1.43-1.64,5.17,5.17,0,0,1-.51-2.32,4.93,4.93,0,0,1,.52-2.32,4.08,4.08,0,0,1,1.43-1.59,3.8,3.8,0,0,1,2-.58,3.63,3.63,0,0,1,2.54,1,3.54,3.54,0,0,1,.77,1.13A3.6,3.6,0,0,1,110,48l-.27-.43v-2.5a.36.36,0,0,1,.09-.24A.33.33,0,0,1,110.07,44.75Zm-3.62,8.12a3.06,3.06,0,0,0,1.73-.51,3.49,3.49,0,0,0,1.19-1.4,4.62,4.62,0,0,0,.43-2,4.39,4.39,0,0,0-.43-1.94,3.56,3.56,0,0,0-1.19-1.38,3.21,3.21,0,0,0-3.44,0A3.47,3.47,0,0,0,103.55,47a4.26,4.26,0,0,0-.44,2,4.48,4.48,0,0,0,.43,2,3.34,3.34,0,0,0,1.19,1.4A3,3,0,0,0,106.45,52.87Z"/><path class="cls-4" d="M123.06,44.47a3.3,3.3,0,0,1,1.76.43,2.5,2.5,0,0,1,1,1.18,4,4,0,0,1,.32,1.65V53a.34.34,0,0,1-.34.34.3.3,0,0,1-.25-.1.33.33,0,0,1-.1-.24V47.8a3.4,3.4,0,0,0-.25-1.34,2,2,0,0,0-.79-1,2.53,2.53,0,0,0-1.42-.36,3.46,3.46,0,0,0-2.68,1.33,2.1,2.1,0,0,0-.48,1.34V53a.34.34,0,0,1-.34.34.3.3,0,0,1-.25-.1.33.33,0,0,1-.1-.24V45.09a.34.34,0,0,1,.11-.24.3.3,0,0,1,.24-.1.33.33,0,0,1,.25.1.36.36,0,0,1,.09.24v1.69l-.43.83a2.35,2.35,0,0,1,.33-1.19,3.73,3.73,0,0,1,.86-1,4.51,4.51,0,0,1,1.18-.69A3.69,3.69,0,0,1,123.06,44.47Z"/><path class="cls-4" d="M138.87,44.65a3.73,3.73,0,0,1,2,.56,4,4,0,0,1,1.42,1.56,5.1,5.1,0,0,1,0,4.53,4.12,4.12,0,0,1-1.43,1.58,3.74,3.74,0,0,1-2,.58,3.67,3.67,0,0,1-1.1-.17,3.76,3.76,0,0,1-1-.46,3.85,3.85,0,0,1-.82-.75,5.23,5.23,0,0,1-.65-1l.23-.24v5.64a.37.37,0,0,1-.1.24.32.32,0,0,1-.25.1.34.34,0,0,1-.34-.34V45a.36.36,0,0,1,.09-.24.36.36,0,0,1,.5,0,.37.37,0,0,1,.1.24V47.2l-.23-.12a3.93,3.93,0,0,1,.61-1.11,3.27,3.27,0,0,1,.82-.76,4,4,0,0,1,1-.43A4.56,4.56,0,0,1,138.87,44.65Zm0,.65a3.15,3.15,0,0,0-1.73.48,3.43,3.43,0,0,0-1.18,1.32,4.59,4.59,0,0,0,0,3.88,3.35,3.35,0,0,0,1.18,1.34,3.15,3.15,0,0,0,1.73.48,3.11,3.11,0,0,0,1.72-.48A3.45,3.45,0,0,0,141.74,51a4.2,4.2,0,0,0,.44-1.94,4.16,4.16,0,0,0-.44-1.93,3.57,3.57,0,0,0-1.19-1.33A3.11,3.11,0,0,0,138.83,45.3Z"/><path class="cls-4" d="M158.18,44.75a.33.33,0,0,1,.25.1.36.36,0,0,1,.09.24V53a.34.34,0,0,1-.34.34.3.3,0,0,1-.25-.1.33.33,0,0,1-.1-.24V50.56l.28-.23a2.51,2.51,0,0,1-.28,1.13,3.52,3.52,0,0,1-.76,1,3.84,3.84,0,0,1-1.13.75,3.53,3.53,0,0,1-1.42.29,3.67,3.67,0,0,1-2.06-.61A4.13,4.13,0,0,1,151,51.28a5,5,0,0,1-.52-2.32,4.93,4.93,0,0,1,.53-2.32,4.08,4.08,0,0,1,1.43-1.59,3.74,3.74,0,0,1,2-.58,3.64,3.64,0,0,1,1.4.27,3.58,3.58,0,0,1,1.15.75,3.51,3.51,0,0,1,.76,1.13,3.43,3.43,0,0,1,.28,1.4l-.28-.43v-2.5a.33.33,0,0,1,.1-.24A.3.3,0,0,1,158.18,44.75Zm-3.62,8.12a3,3,0,0,0,1.72-.51,3.41,3.41,0,0,0,1.19-1.4,4.48,4.48,0,0,0,.43-2,4.25,4.25,0,0,0-.43-1.94,3.48,3.48,0,0,0-1.19-1.38,3,3,0,0,0-1.72-.51,3.05,3.05,0,0,0-1.71.49,3.42,3.42,0,0,0-1.2,1.35,4.38,4.38,0,0,0-.44,2,4.62,4.62,0,0,0,.43,2,3.49,3.49,0,0,0,1.19,1.4A3,3,0,0,0,154.56,52.87Z"/><path class="cls-4" d="M170.89,44.47a3.81,3.81,0,0,1,1.44.28,3.89,3.89,0,0,1,1.18.72,3.6,3.6,0,0,1,.8,1,2.07,2.07,0,0,1,.28,1l-.22-.64V45.09a.36.36,0,0,1,.09-.24.33.33,0,0,1,.25-.1.3.3,0,0,1,.25.1.33.33,0,0,1,.1.24v7.42a4.51,4.51,0,0,1-.55,2.29A3.66,3.66,0,0,1,173,56.28a4.45,4.45,0,0,1-2.2.52,5.52,5.52,0,0,1-1.39-.18,4.26,4.26,0,0,1-1.17-.46c-.31-.18-.46-.38-.46-.58a.3.3,0,0,1,.08-.23.25.25,0,0,1,.21-.08.4.4,0,0,1,.32.19,1.27,1.27,0,0,0,.53.34l.42.14a4,4,0,0,0,.65.14,4.32,4.32,0,0,0,.84.07,3.37,3.37,0,0,0,2.58-1,3.75,3.75,0,0,0,.94-2.63V50.8l.17,0a3.88,3.88,0,0,1-.6,1.26,3.56,3.56,0,0,1-.91.83,3.64,3.64,0,0,1-1.07.47,4.12,4.12,0,0,1-1.07.15,3.84,3.84,0,0,1-2.13-.6,4.34,4.34,0,0,1-1.5-1.62,5.17,5.17,0,0,1,0-4.64,4.23,4.23,0,0,1,1.5-1.61A3.92,3.92,0,0,1,170.89,44.47Zm0,.66a3.25,3.25,0,0,0-1.8.5A3.4,3.4,0,0,0,167.86,47a4.51,4.51,0,0,0,0,4,3.46,3.46,0,0,0,1.26,1.39,3.26,3.26,0,0,0,1.8.51,3.3,3.3,0,0,0,1.79-.49A3.52,3.52,0,0,0,174,51,4.62,4.62,0,0,0,174,47a3.42,3.42,0,0,0-1.26-1.35A3.38,3.38,0,0,0,170.92,45.13Z"/><path class="cls-4" d="M187.32,53.53A4.6,4.6,0,0,1,185,53a4,4,0,0,1-1.56-1.56A4.72,4.72,0,0,1,182.9,49a5.05,5.05,0,0,1,.56-2.46A4.13,4.13,0,0,1,184.91,45a3.49,3.49,0,0,1,1.89-.55,4.26,4.26,0,0,1,1.41.24,3.45,3.45,0,0,1,1.24.72,3.94,3.94,0,0,1,.88,1.22,4.81,4.81,0,0,1,.37,1.75.34.34,0,0,1-.11.25.31.31,0,0,1-.24.12h-7l-.11-.66h6.95l-.17.16V48a2.85,2.85,0,0,0-.58-1.54,3.24,3.24,0,0,0-1.18-.94,3.42,3.42,0,0,0-1.43-.32,2.79,2.79,0,0,0-1.09.24,3.22,3.22,0,0,0-1.05.7,3.67,3.67,0,0,0-.78,1.2,4.76,4.76,0,0,0,.12,3.62,3.3,3.3,0,0,0,1.26,1.41,3.69,3.69,0,0,0,2.06.54,3.07,3.07,0,0,0,1.1-.2,3.49,3.49,0,0,0,.93-.52,3.17,3.17,0,0,0,.67-.71.39.39,0,0,1,.3-.16.26.26,0,0,1,.2.1.29.29,0,0,1,.09.21.31.31,0,0,1-.07.21A5.22,5.22,0,0,1,189.17,53,3.49,3.49,0,0,1,187.32,53.53Z"/></g></g></svg>