<svg xmlns="http://www.w3.org/2000/svg" viewBox="0 0 112.23 57.16"><defs><style>.cls-1{font-size:37.27px;font-family:BebasNeue-Regular, Bebas Neue;}.cls-1,.cls-3{fill:#fff;}.cls-2{letter-spacing:0em;}</style></defs><g id="Layer_2" data-name="Layer 2"><g id="Layer_1-2" data-name="Layer 1"><text class="cls-1" transform="translate(0 31.68)">G<tspan class="cls-2" x="14.57" y="0">l</tspan><tspan x="27.24" y="0">orious</tspan></text><path class="cls-3" d="M3.07,53.35a.32.32,0,0,1-.25-.1.37.37,0,0,1-.1-.24V41.63a.38.38,0,0,1,.35-.35h6.5a.38.38,0,0,1,.35.35.33.33,0,0,1-.11.25.36.36,0,0,1-.24.09H3.36l.06-.07v5l-.07-.14H8.79a.35.35,0,0,1,.25.6.37.37,0,0,1-.25.09H3.31l.11-.14V53a.37.37,0,0,1-.1.24A.32.32,0,0,1,3.07,53.35Z"/><path class="cls-3" d="M24.85,44.75a.33.33,0,0,1,.25.1.36.36,0,0,1,.09.24V53a.34.34,0,0,1-.34.34.3.3,0,0,1-.25-.1.33.33,0,0,1-.1-.24V50.56l.28-.23a2.51,2.51,0,0,1-.28,1.13,3.52,3.52,0,0,1-.76,1,3.84,3.84,0,0,1-1.13.75,3.53,3.53,0,0,1-1.42.29,3.64,3.64,0,0,1-2.06-.61,4.13,4.13,0,0,1-1.42-1.64A5,5,0,0,1,17.19,49a4.93,4.93,0,0,1,.53-2.32,4,4,0,0,1,1.43-1.59,3.74,3.74,0,0,1,2-.58,3.64,3.64,0,0,1,1.4.27,3.53,3.53,0,0,1,1.14.75,3.39,3.39,0,0,1,.77,1.13,3.43,3.43,0,0,1,.28,1.4l-.28-.43v-2.5a.33.33,0,0,1,.1-.24A.3.3,0,0,1,24.85,44.75Zm-3.62,8.12A3,3,0,0,0,23,52.36,3.41,3.41,0,0,0,24.14,51a4.48,4.48,0,0,0,.43-2A4.25,4.25,0,0,0,24.14,47,3.48,3.48,0,0,0,23,45.64a3.19,3.19,0,0,0-3.43,0A3.42,3.42,0,0,0,18.32,47a4.38,4.38,0,0,0-.44,2,4.48,4.48,0,0,0,.43,2,3.49,3.49,0,0,0,1.19,1.4A3,3,0,0,0,21.23,52.87Z"/><path class="cls-3" d="M37.83,44.47a3.36,3.36,0,0,1,1.77.43,2.62,2.62,0,0,1,1,1.18,4.15,4.15,0,0,1,.32,1.65V53a.34.34,0,0,1-.11.24.33.33,0,0,1-.24.1.32.32,0,0,1-.25-.1.36.36,0,0,1-.09-.24V47.8A3.59,3.59,0,0,0,40,46.46a2.06,2.06,0,0,0-.8-1,2.51,2.51,0,0,0-1.42-.36,3.26,3.26,0,0,0-1.48.36,3.45,3.45,0,0,0-1.2,1,2.09,2.09,0,0,0-.47,1.34V53a.34.34,0,0,1-.11.24.33.33,0,0,1-.24.1.32.32,0,0,1-.25-.1.36.36,0,0,1-.09-.24V45.09a.34.34,0,0,1,.34-.34.32.32,0,0,1,.25.1.37.37,0,0,1,.1.24v1.69l-.44.83a2.35,2.35,0,0,1,.33-1.19,3.92,3.92,0,0,1,.86-1,4.41,4.41,0,0,1,1.19-.69A3.68,3.68,0,0,1,37.83,44.47Z"/><path class="cls-3" d="M53.64,44.65a3.73,3.73,0,0,1,2,.56,4.15,4.15,0,0,1,1.43,1.56,5.19,5.19,0,0,1,0,4.53,4.15,4.15,0,0,1-1.44,1.58,3.74,3.74,0,0,1-2,.58,3.6,3.6,0,0,1-1.09-.17,3.65,3.65,0,0,1-1.8-1.21,5.19,5.19,0,0,1-.64-1l.22-.24v5.64a.36.36,0,0,1-.09.24.36.36,0,0,1-.5,0,.37.37,0,0,1-.1-.24V45a.33.33,0,0,1,.1-.24.3.3,0,0,1,.25-.1.33.33,0,0,1,.25.1.36.36,0,0,1,.09.24V47.2l-.22-.12a4.18,4.18,0,0,1,.6-1.11,3.31,3.31,0,0,1,.83-.76,3.87,3.87,0,0,1,1-.43A4.42,4.42,0,0,1,53.64,44.65Zm0,.65a3.16,3.16,0,0,0-1.74.48,3.43,3.43,0,0,0-1.18,1.32,4.59,4.59,0,0,0,0,3.88,3.35,3.35,0,0,0,1.18,1.34,3.16,3.16,0,0,0,1.74.48,3.1,3.1,0,0,0,1.71-.48A3.37,3.37,0,0,0,56.51,51,4.2,4.2,0,0,0,57,49a4.16,4.16,0,0,0-.44-1.93,3.48,3.48,0,0,0-1.19-1.33A3.1,3.1,0,0,0,53.61,45.3Z"/><path class="cls-3" d="M73,44.75a.3.3,0,0,1,.25.1.33.33,0,0,1,.1.24V53a.34.34,0,0,1-.11.24.33.33,0,0,1-.24.1.33.33,0,0,1-.25-.1.36.36,0,0,1-.09-.24V50.56l.27-.23a2.63,2.63,0,0,1-.27,1.13,3.92,3.92,0,0,1-.76,1,3.76,3.76,0,0,1-1.14.75,3.52,3.52,0,0,1-1.41.29,3.64,3.64,0,0,1-2.06-.61,4.15,4.15,0,0,1-1.43-1.64A5.17,5.17,0,0,1,65.3,49a4.93,4.93,0,0,1,.52-2.32,4.08,4.08,0,0,1,1.43-1.59,3.8,3.8,0,0,1,2-.58,3.63,3.63,0,0,1,2.54,1,3.54,3.54,0,0,1,.77,1.13,3.6,3.6,0,0,1,.27,1.4l-.27-.43v-2.5a.36.36,0,0,1,.09-.24A.33.33,0,0,1,73,44.75Zm-3.62,8.12a3.06,3.06,0,0,0,1.73-.51A3.49,3.49,0,0,0,72.25,51a4.62,4.62,0,0,0,.43-2A4.39,4.39,0,0,0,72.25,47a3.56,3.56,0,0,0-1.19-1.38,3.21,3.21,0,0,0-3.44,0A3.47,3.47,0,0,0,66.43,47,4.26,4.26,0,0,0,66,49a4.48,4.48,0,0,0,.43,2,3.41,3.41,0,0,0,1.19,1.4A3,3,0,0,0,69.33,52.87Z"/><path class="cls-3" d="M85.66,44.47a3.86,3.86,0,0,1,1.45.28,4,4,0,0,1,1.18.72,3.55,3.55,0,0,1,.79,1,2.08,2.08,0,0,1,.29,1l-.23-.64V45.09a.33.33,0,0,1,.1-.24.3.3,0,0,1,.25-.1.33.33,0,0,1,.25.1.36.36,0,0,1,.09.24v7.42a4.62,4.62,0,0,1-.54,2.29,3.72,3.72,0,0,1-1.49,1.48,4.48,4.48,0,0,1-2.21.52,5.58,5.58,0,0,1-1.39-.18A4.32,4.32,0,0,1,83,56.16c-.31-.18-.47-.38-.47-.58a.34.34,0,0,1,.08-.23.26.26,0,0,1,.22-.08.41.41,0,0,1,.32.19,1.23,1.23,0,0,0,.52.34l.42.14a5.85,5.85,0,0,0,1.49.21,3.34,3.34,0,0,0,2.58-1,3.7,3.7,0,0,0,.94-2.63V50.8l.18,0a3.7,3.7,0,0,1-.61,1.26,3.36,3.36,0,0,1-.9.83,3.76,3.76,0,0,1-1.07.47,4.25,4.25,0,0,1-1.08.15,3.89,3.89,0,0,1-2.13-.6A4.31,4.31,0,0,1,82,51.31a5.17,5.17,0,0,1,0-4.64,4.21,4.21,0,0,1,1.49-1.61A4,4,0,0,1,85.66,44.47Zm0,.66a3.3,3.3,0,0,0-1.8.5A3.55,3.55,0,0,0,82.63,47a4.6,4.6,0,0,0,0,4,3.61,3.61,0,0,0,1.26,1.39,3.49,3.49,0,0,0,3.6,0A3.52,3.52,0,0,0,88.75,51a4.71,4.71,0,0,0,0-4.06,3.36,3.36,0,0,0-3.06-1.83Z"/><path class="cls-3" d="M102.09,53.53A4.59,4.59,0,0,1,99.81,53a4,4,0,0,1-1.56-1.56A4.72,4.72,0,0,1,97.68,49a4.94,4.94,0,0,1,.56-2.46A4,4,0,0,1,99.69,45a3.48,3.48,0,0,1,1.88-.55,4.28,4.28,0,0,1,1.42.24,3.33,3.33,0,0,1,1.23.72,3.78,3.78,0,0,1,.88,1.22,4.61,4.61,0,0,1,.37,1.75.33.33,0,0,1-.1.25.31.31,0,0,1-.24.12h-7l-.1-.66h7l-.18.16V48a2.84,2.84,0,0,0-.57-1.54,3.32,3.32,0,0,0-1.18-.94,3.43,3.43,0,0,0-1.44-.32,2.79,2.79,0,0,0-1.08.24,3.22,3.22,0,0,0-1,.7,3.53,3.53,0,0,0-.79,1.2,4.76,4.76,0,0,0,.12,3.62A3.3,3.3,0,0,0,100,52.33a3.74,3.74,0,0,0,2.06.54,3.17,3.17,0,0,0,1.11-.2,3.84,3.84,0,0,0,.93-.52,3.42,3.42,0,0,0,.67-.71.38.38,0,0,1,.29-.16.3.3,0,0,1,.21.1.28.28,0,0,1,.08.21.37.37,0,0,1-.06.21A5.38,5.38,0,0,1,104,53,3.52,3.52,0,0,1,102.09,53.53Z"/></g></g></svg>